<svg width="15" height="13" viewBox="0 0 15 13" fill="none" xmlns="http://www.w3.org/2000/svg">
<path d="M10.8 0.00081161C10.1584 1.47209e-05 9.52561 0.149795 8.95246 0.438107C8.37931 0.726419 7.88182 1.14521 7.5 1.66081C7.11818 1.14521 6.62069 0.726419 6.04754 0.438107C5.47439 0.149795 4.84158 1.47209e-05 4.2 0.00081161C3.11401 -0.0207343 2.06346 0.387449 1.2769 1.13655C0.490337 1.88566 0.0314232 2.91507 0 4.00081C0 7.18081 7.5 13.0008 7.5 13.0008C7.5 13.0008 15 7.22081 15 4.00081C14.9686 2.91507 14.5097 1.88566 13.7231 1.13655C12.9365 0.387449 11.886 -0.0207343 10.8 0.00081161Z" fill="white"/>
</svg>
